<?xml version="1.0" encoding="UTF-8"?>
<svg xmlns="http://www.w3.org/2000/svg" id="a" width="865.76" height="682.89" viewBox="0 0 865.76 682.89">
    <g>
        <path d="M702.4,647.25v7s-38.9,0-38.9,0v-3.18s27.99,0,27.99,0c1.71,0,3.36-.53,4.68-1.49,1.48-1.07,3.75-2.33,6.23-2.33Z"
              fill="#231f20"></path>
        <path d="M702.9,654.75h-39.9v-4.18h28.49c1.59,0,3.15-.5,4.39-1.4,1.53-1.11,3.9-2.43,6.52-2.43h.5v8Zm-38.9-1h37.9v-5.98c-2.16,.15-4.12,1.27-5.43,2.22-1.41,1.02-3.18,1.59-4.98,1.59h-27.49v2.18Z"
              fill="#231f20"></path>
    </g>
    <g>
        <path d="M745.77,647.25v7s34.44,0,34.44,0v-3.18s-24.78,0-24.78,0c-1.52,0-2.97-.53-4.15-1.49-1.31-1.07-3.32-2.33-5.51-2.33Z"
              fill="#231f20"></path>
        <path d="M780.7,654.75h-35.44v-8h.5c2.35,0,4.46,1.33,5.83,2.45,1.09,.89,2.45,1.38,3.83,1.38h25.28v4.18Zm-34.44-1h33.44v-2.18h-24.28c-1.61,0-3.2-.57-4.46-1.61-1.14-.93-2.84-2.02-4.7-2.2v5.98Z"
              fill="#231f20"></path>
    </g>
    <path d="M416.74,513.96s-.09,0-.13,0c-25.99-2.31-45.57-11.33-58.17-26.81-17.99-22.08-16.79-51.66-15.43-63.35,.98-8.48,.42-16.55-1.68-24-3.66-13.01-11.05-22.16-21.97-27.18-30.84-14.19-80.24,8.4-80.74,8.63-.75,.35-1.64,.02-1.99-.73-.35-.75-.02-1.64,.73-1.99,2.07-.96,51.18-23.4,83.25-8.63,11.75,5.41,19.7,15.2,23.6,29.1,2.2,7.83,2.79,16.29,1.77,25.16-1.31,11.31-2.49,39.91,14.78,61.11,12.08,14.83,30.95,23.48,56.11,25.71,.83,.07,1.43,.8,1.36,1.63-.07,.78-.72,1.37-1.49,1.37Z"
          fill="#231f20"></path>
    <path d="M416.74,535.55s-.05,0-.08,0c-30.99-1.69-54.67-11.98-70.37-30.58-24.92-29.51-22.32-71.55-20.93-83.73,.53-4.61,.15-8.97-1.12-12.96-2.28-7.18-6.95-12.39-13.87-15.47-28.35-12.64-85.63,12.92-86.21,13.18-.75,.34-1.64,0-1.98-.75-.34-.76,0-1.64,.75-1.98,2.4-1.08,59.09-26.37,88.66-13.18,7.74,3.45,12.96,9.27,15.51,17.31,1.4,4.39,1.81,9.17,1.24,14.21-1.36,11.88-3.9,52.86,20.24,81.45,15.15,17.94,38.11,27.87,68.24,29.52,.83,.04,1.46,.75,1.42,1.58-.04,.8-.71,1.42-1.5,1.42Z"
          fill="#231f20"></path>
    <g>
        <path d="M661.63,626.21s3.32,7.36,15.03,7.18l13.89-3.59-11.16-8.76s-4.95-.56-17.76,5.17Z" fill="#231f20"></path>
        <path d="M676.23,633.9c-11.55,0-14.92-7.17-15.05-7.48l-.21-.46,.46-.2c12.79-5.71,17.81-5.23,18.02-5.21l.14,.02,12.07,9.47-14.99,3.86c-.15,0-.29,0-.44,0Zm-13.9-7.45c.92,1.56,4.66,6.57,14.27,6.44l12.86-3.32-10.25-8.04c-.85-.03-5.86,.05-16.88,4.92Z"
              fill="#231f20"></path>
    </g>
    <g>
        <path d="M702.09,618.5l.31,28.75c-2.48,0-4.75,1.26-6.23,2.33-1.32,.96-2.97,1.49-4.68,1.49h-27.99c0-2.81,2.18-5.23,4.14-6.84,4.82-3.96,8.61-8.83,10.57-14.39,1.59-4.51,1.23-15.76,1.23-15.76,5.11,3.58,22.65,4.42,22.65,4.42Z"
              fill="#fff"></path>
        <path d="M691.49,651.57h-28.49v-.5c0-3.04,2.35-5.6,4.32-7.22,4.99-4.1,8.59-9,10.42-14.17,1.54-4.36,1.21-15.47,1.2-15.58l-.03-1,.82,.57c4.94,3.46,22.21,4.32,22.38,4.33l.47,.02,.32,29.72h-.51c-2.35,0-4.52,1.22-5.93,2.24-1.41,1.02-3.18,1.59-4.98,1.59Zm-27.47-1h27.47c1.59,0,3.15-.5,4.39-1.4,1.43-1.04,3.6-2.26,6.01-2.41l-.3-27.79c-2.75-.15-16.19-1.05-21.63-3.99,.05,2.81,.07,11.19-1.28,15.02-1.89,5.35-5.6,10.4-10.73,14.61-1.69,1.39-3.69,3.51-3.93,5.95Z"
              fill="#231f20"></path>
    </g>
    <path d="M682.95,643.28c-.07,0-.15-.02-.22-.05-6.21-3.05-12.13-1.03-12.19-1.01-.26,.09-.55-.04-.64-.31-.09-.26,.04-.55,.31-.64,.26-.09,6.36-2.18,12.96,1.06,.25,.12,.35,.42,.23,.67-.09,.18-.26,.28-.45,.28Z"
          fill="#231f20"></path>
    <g>
        <path d="M715.15,177.86l19.13,8.93s15.31,6.38,20.41,21.68l17.86,40.82,24.23,19.13s.18,.11,.47,.32c5.22,3.83,5.38,11.61,.4,15.75-3.47,2.89-9.57,6.8-20,10.71,0,0-20.68,7.3-34.72-12.56-.3-.42-.96-.19-.93,.32,.18,3.07,.86,9.68,3.35,16.88,1.31,3.8,2.41,7.68,3.09,11.64,1.46,8.44,3.85,24.49,6.25,50.04l5.1,80.36s-53.57,12.75-113.52,2.55l5.1-123.72s0-20.41,5.1-40.82c0,0,2.55-17.86-2.55-22.96,0,0-26.79,43.37-51.02,38.26,0,0-6.38,0-20.41-14.03l-30.61-28.06s19.13-15.31,16.58-29.34l38.26,26.79,31.67-44.57s11.69-17.93,39.75-29.41l1.1-2.4s13.45,9.9,31.05,1.05l4.84,2.63Z"
              fill="#fff"></path>
        <path d="M694.79,448.87c-14.99,0-31.56-1.04-48.59-3.93l-.43-.07,.02-.44,5.1-123.72c0-.18,.06-20.68,5.12-40.92,.01-.12,2.3-16.57-2-22.01-3.18,5-25.2,38.35-46.98,38.36-1.39,0-2.78-.14-4.17-.42-.72-.03-7.23-.7-20.7-14.18l-31.03-28.44,.46-.36c.19-.15,18.87-15.28,16.4-28.86l-.22-1.2,38.85,27.2,31.38-44.16c.11-.16,12.04-18.1,39.79-29.51l1.27-2.78,.5,.36c.13,.1,13.42,9.61,30.53,1.01l.23-.12,5.06,2.74,19.12,8.92c.14,.06,15.56,6.63,20.67,21.98l17.79,40.66,24.13,19.05s.19,.12,.46,.32c2.58,1.9,4.12,4.85,4.22,8.08,.1,3.28-1.29,6.37-3.8,8.46-3.23,2.69-9.35,6.75-20.14,10.8-.22,.08-21.21,7.2-35.3-12.74,.17,3.23,.86,9.69,3.3,16.75,1.46,4.22,2.48,8.06,3.11,11.72,1.55,9.01,3.9,25.01,6.25,50.07l5.13,80.79-.41,.1c-.38,.09-27.86,6.49-65.13,6.49Zm-47.99-4.85c56.24,9.47,107.39-1.39,112.47-2.52l-5.08-79.93c-2.34-25.02-4.69-40.99-6.24-49.98-.62-3.61-1.63-7.39-3.07-11.57-2.48-7.17-3.18-13.74-3.38-17.02-.03-.45,.24-.86,.67-1.01,.43-.15,.9,0,1.16,.37,13.65,19.31,33.94,12.45,34.14,12.38,10.65-4,16.67-7.98,19.84-10.62,2.28-1.9,3.53-4.69,3.44-7.66-.09-2.93-1.48-5.59-3.82-7.31-.26-.19-.42-.29-.43-.29l-24.38-19.25-.05-.11-17.86-40.82c-4.98-14.95-19.99-21.36-20.14-21.42l-19.18-8.95-4.61-2.5c-15.65,7.74-28.2,.79-30.83-.87l-.94,2.05-.18,.07c-27.6,11.29-39.41,29.04-39.53,29.22l-31.97,44.99-37.73-26.41c1.31,12.76-13.6,25.88-16.47,28.29l30.19,27.67c13.64,13.64,20.01,13.9,20.07,13.9,23.72,4.98,50.32-37.6,50.59-38.03l.33-.54,.45,.45c5.22,5.22,2.8,22.64,2.69,23.38-5.04,20.16-5.1,40.54-5.1,40.74l-5.08,123.3Z"
              fill="#231f20"></path>
    </g>
    <g>
        <rect x="662.86" y="111.54" width="40.82" height="53.57" rx="20.25" ry="20.25"
              transform="translate(1366.54 276.65) rotate(-180)" fill="#fff"></rect>
        <path d="M683.43,165.61h-.32c-11.44,0-20.75-9.31-20.75-20.75v-13.07c0-11.44,9.31-20.75,20.75-20.75h.32c11.44,0,20.75,9.31,20.75,20.75v13.07c0,11.44-9.31,20.75-20.75,20.75Zm-.32-53.57c-10.89,0-19.75,8.86-19.75,19.75v13.07c0,10.89,8.86,19.75,19.75,19.75h.32c10.89,0,19.75-8.86,19.75-19.75v-13.07c0-10.89-8.86-19.75-19.75-19.75h-.32Z"
              fill="#231f20"></path>
    </g>
    <g>
        <path d="M734.29,186.79s3.83-16.58-3.83-26.79c0,0,5.1-61.22-48.47-59.95,0,0-31.89-2.55-31.89,24.23,0,0-.18,8.93,4.37,17.86,0,0,4.56,10.2-.55,16.58,0,0-11.48,14.03,2.55,29.34l17.86-10.2,3.83-1.28,5.26-11.48s-19.29,.32-20.57-20.25v-13.07s0-17.4,17.85-20.1c0,0,7.92,15,20.55,22.73l2.42,2.45v8s0,5.81-2.55,9.84c0,0,0,18.06,14.03,23.16l19.13,8.93Z"
              fill="#fff"></path>
        <path d="M656.38,188.7l-.27-.29c-14.16-15.45-2.69-29.85-2.57-29.99,4.85-6.06,.52-15.96,.48-16.06-4.55-8.91-4.42-17.98-4.42-18.07,0-7.23,2.31-13.03,6.85-17.23,9.4-8.68,24.92-7.55,25.57-7.5,14.68-.35,26.34,3.96,34.68,12.82,15.85,16.82,14.43,44.88,14.26,47.48,7.56,10.28,3.96,26.36,3.8,27.05l-.14,.6-19.69-9.19c-14.15-5.14-14.32-23.43-14.32-23.62v-.15l.08-.12c2.44-3.86,2.47-9.51,2.47-9.57v-7.79l-2.23-2.26c-11.55-7.1-19.27-20.37-20.5-22.58-16.87,2.76-17.08,18.86-17.08,19.55v13.07c1.23,19.8,19.27,19.76,20.06,19.75h.79s-5.68,12.38-5.68,12.38l-4.03,1.34-18.11,10.36Zm23.54-88.2c-4.58,0-15.68,.73-22.79,7.29-4.33,4-6.53,9.55-6.53,16.5,0,.1-.12,8.92,4.32,17.63,.2,.45,4.63,10.58-.6,17.12-.46,.56-10.9,13.71,2.26,28.39l17.51-10,3.71-1.25,4.86-10.6c-3.67-.22-19.16-2.27-20.3-20.69v-13.11c0-.18,.2-17.87,18.28-20.6l.35-.05,.17,.31c.08,.15,8.01,14.97,20.37,22.54l.09,.08,2.56,2.6v8.2c0,.24-.03,5.88-2.55,9.98,.04,1.68,.81,17.87,13.7,22.56l18.6,8.68c.58-3.06,2.74-16.96-3.86-25.76l-.11-.15,.02-.19c.02-.29,2.26-29.67-13.98-46.9-8.14-8.64-19.56-12.86-33.98-12.5-.04,0-.81-.06-2.08-.06Z"
              fill="#231f20"></path>
    </g>
    <g>
        <path d="M701.12,154.7s-.76,11.54,9.19,20.54c0,0-15.92,9.3-31.05-1.05l4.16-9.08s11.32,.86,17.7-10.41Z"
              fill="#fff"></path>
        <path d="M694.99,179.55c-4.94,0-10.53-1.2-16-4.95l-.35-.24,4.48-9.78,.35,.03c.12,0,11.09,.69,17.22-10.16l1.07-1.9-.14,2.18c0,.11-.61,11.41,9.03,20.14l.51,.46-.59,.34c-.1,.06-6.79,3.88-15.58,3.88Zm-15.09-5.54c12.95,8.59,26.56,2.62,29.56,1.12-7.25-6.89-8.58-15.16-8.8-18.71-5.9,8.86-15.02,9.22-16.91,9.2l-3.85,8.39Z"
              fill="#231f20"></path>
    </g>
    <g>
        <path d="M715.15,177.86l-19.13,59.95-17.86-61.22,1.1-2.4s12.17,9.9,31.05,1.05c0,0,2.29,1.35,4.84,2.63Z"
              fill="#000000"></path>
        <path d="M696,239.52l-18.37-62.97,1.45-3.16,.5,.41c.12,.1,12.17,9.59,30.52,.99l.24-.11,.23,.13s2.31,1.36,4.81,2.61l.38,.19-19.76,61.92Zm-17.3-62.9l17.35,59.47,18.5-57.98c-1.92-.98-3.66-1.97-4.26-2.32-16.65,7.7-28.29,.88-30.82-.85l-.77,1.68Z"
              fill="#231f20"></path>
    </g>
    <path d="M701.92,448.82c-.24,0-.45-.17-.49-.41-6.79-39.08-5.91-208.89-5.9-210.6,0-.27,.23-.5,.5-.5h0c.28,0,.5,.23,.5,.5,0,1.71-.88,171.43,5.89,210.42,.05,.27-.13,.53-.41,.58-.03,0-.06,0-.09,0Z"
          fill="#231f20"></path>
    <path d="M657.76,215.35c-.25,0-.47-.19-.5-.44-1.25-11.21-8.08-20.48-8.15-20.57-.17-.22-.12-.53,.1-.7,.22-.17,.53-.12,.7,.1,.07,.09,7.07,9.58,8.35,21.06,.03,.27-.17,.52-.44,.55-.02,0-.04,0-.06,0Z"
          fill="#231f20"></path>
    <path d="M653.93,257.44c-.21,0-.41-.14-.48-.35-.11-.34-2.57-8.48-1-16.67,.26-1.34,.73-2.71,1.5-4.3,1.25-2.6,3.95-9.36,2.05-16.03-.08-.27,.08-.54,.34-.62,.27-.07,.54,.08,.62,.34,2,7-.81,14.04-2.11,16.74-.73,1.51-1.18,2.8-1.42,4.05-1.53,7.95,.94,16.1,.97,16.19,.08,.26-.07,.54-.33,.63-.05,.02-.1,.02-.15,.02Z"
          fill="#231f20"></path>
    <path d="M701.12,238.31c-.07,0-.15-.02-.22-.05-.25-.12-.35-.42-.23-.67l16.01-33.12-4.5-7.14c-.08-.13-.1-.29-.05-.44,.05-.15,.17-.26,.32-.31l8.88-2.9-2.65-13.87c-.05-.27,.13-.53,.4-.58,.27-.05,.53,.13,.58,.4l2.74,14.3c.05,.25-.1,.49-.34,.57l-8.68,2.83,4.31,6.83c.09,.15,.1,.33,.03,.48l-16.13,33.37c-.09,.18-.26,.28-.45,.28Z"
          fill="#231f20"></path>
    <path d="M692.38,234.75c-.18,0-.35-.1-.44-.26l-18.04-33.43c-.07-.13-.08-.28-.03-.42l2.5-6.43-6.15-4.47c-.16-.11-.23-.31-.2-.5l2.02-10.26c.05-.27,.31-.45,.59-.39,.27,.05,.45,.32,.39,.59l-1.96,9.95,6.2,4.51c.18,.13,.25,.37,.17,.59l-2.55,6.57,17.93,33.23c.13,.24,.04,.55-.2,.68-.08,.04-.16,.06-.24,.06Z"
          fill="#231f20"></path>
    <path d="M733.82,215.35c-.08,0-.16-.02-.24-.06-.24-.13-.33-.43-.2-.68l11.27-20.81c.13-.24,.43-.33,.68-.2,.24,.13,.33,.43,.2,.68l-11.27,20.81c-.09,.17-.26,.26-.44,.26Z"
          fill="#231f20"></path>
    <path d="M737.16,271.94c-.23,0-.44-.16-.49-.4-1.54-7.63,.14-11.76,1.28-13.55,1.38-2.16,2.26-4.18,2.71-6.17,1.97-8.7-1.6-15.15-1.64-15.21-3.8-9.21-1.91-16.48-1.83-16.78,.07-.27,.35-.42,.61-.35,.27,.07,.42,.35,.35,.61-.02,.07-1.88,7.25,1.76,16.08,.13,.22,3.77,6.78,1.72,15.87-.48,2.1-1.41,4.22-2.85,6.48-1.06,1.66-2.61,5.53-1.14,12.82,.05,.27-.12,.53-.39,.59-.03,0-.07,0-.1,0Z"
          fill="#231f20"></path>
    <path d="M674.73,227.26c-2.52,0-5.4-.23-8.37-.93-.27-.06-.44-.33-.37-.6,.06-.27,.33-.43,.6-.37,8.49,2,16.48,.02,16.56,0,.27-.07,.54,.09,.61,.36,.07,.27-.09,.54-.36,.61-.22,.06-3.76,.94-8.66,.94Z"
          fill="#231f20"></path>
    <g>
        <path d="M568.47,223.78s-10.2-22.96-24.23-33.16l-10.14-7.1c-1.38-.97-3.29-.48-4.05,1.03h0c-.63,1.26-.22,2.79,.97,3.55,3.67,2.35,10.99,7.32,11.94,10.17,0,0-3.83,0-5.1,3.83,0,0,19.43,37.12,21.2,44.07,0,0,11.97-12.18,9.42-22.39Z"
              fill="#fff"></path>
        <path d="M558.79,247.15l-.22-.86c-1.73-6.81-20.96-43.59-21.16-43.96l-.1-.19,.07-.2c1.02-3.05,3.56-3.87,4.83-4.09-1.19-2.03-5.28-5.37-11.46-9.33-1.4-.9-1.89-2.7-1.15-4.19,.42-.85,1.19-1.47,2.11-1.7,.92-.23,1.89-.05,2.67,.49l10.14,7.1c13.98,10.17,24.3,33.14,24.4,33.37l.03,.08c2.59,10.36-9.05,22.35-9.54,22.86l-.62,.63Zm-20.39-45.09c1.61,3.09,18.13,34.76,20.88,43.13,2.34-2.6,10.8-12.73,8.71-21.24-.49-1.08-10.56-23.11-24.05-32.92l-10.13-7.09c-.54-.38-1.21-.5-1.85-.34-.64,.16-1.17,.59-1.46,1.18-.52,1.03-.18,2.28,.79,2.9,4.11,2.63,11.16,7.49,12.14,10.44l.22,.65h-.69c-.14,0-3.36,.06-4.56,3.29Z"
              fill="#231f20"></path>
    </g>
    <path d="M551.89,217.81s-.08,0-.12-.01c-.27-.07-.43-.34-.37-.6,1.18-4.81-2.27-7.58-2.42-7.69-4.73-5.09-6.14-8.08-6.5-9.71-.23-1.05,.33-2.16,1.32-2.56,5.39-2.22,12.75,5.51,13.06,5.84,.19,.2,.18,.52-.02,.71-.2,.19-.52,.18-.71-.02-.07-.08-7.2-7.56-11.95-5.6-.54,.22-.85,.84-.72,1.42,.34,1.51,1.69,4.32,6.2,9.19,.11,.08,4.05,3.21,2.72,8.66-.06,.23-.26,.38-.49,.38Z"
          fill="#231f20"></path>
    <g>
        <path d="M568.83,287.92l6.2-3.44c2.03-1.13,2.8-3.66,1.75-5.73l-55.57-108.73c-.74-1.44-2.22-2.35-3.84-2.35h-136.8c-1.05,0-2.04,.5-2.66,1.35l-9.68,10.13,100.73,35.46,99.88,73.32Z"
              fill="#231f20"></path>
        <path d="M568.79,288.51l-100.08-73.47-101.39-35.69,10.22-10.69c.67-.92,1.81-1.51,3.02-1.51h136.8c1.82,0,3.46,1,4.29,2.62l55.58,108.73c1.19,2.32,.33,5.13-1.95,6.4l-6.48,3.6Zm-199.67-109.59l100.07,35.22,.06,.04,99.62,73.13,5.92-3.29c1.81-1,2.48-3.23,1.54-5.07l-55.58-108.73c-.66-1.28-1.96-2.08-3.39-2.08h-136.8c-.89,0-1.73,.43-2.25,1.15l-9.19,9.62Z"
              fill="#231f20"></path>
    </g>
    <path d="M752.14,265.1c-.21,0-.4-.13-.47-.34-.09-.26,.05-.55,.32-.63l11.48-3.83c.26-.09,.54,.05,.63,.32,.09,.26-.05,.55-.32,.63l-11.48,3.83c-.05,.02-.11,.03-.16,.03Z"
          fill="#231f20"></path>
    <g>
        <path d="M777.38,269.85s-2.17,6.73,2.36,11.87c2.73,3.11,7,4.29,11.08,3.59,3.11-.53,6.79-1.98,8.89-5.65,1.56-2.71,1.65-6.13-.26-8.61-.47-.62-1.06-1.16-1.81-1.53l-20.27,.33Z"
              fill="#231f20"></path>
        <path d="M788.49,286.01c-3.58,0-6.89-1.4-9.13-3.96-4.66-5.3-2.55-12.07-2.46-12.36l.11-.34,20.74-.33,.11,.05c.75,.37,1.42,.93,1.98,1.67,1.93,2.52,2.04,6.12,.29,9.17-1.79,3.12-4.99,5.16-9.24,5.89-.81,.14-1.61,.21-2.41,.21Zm-10.73-15.67c-.35,1.4-1.36,6.83,2.35,11.05,2.51,2.86,6.48,4.14,10.62,3.43,2.75-.47,6.47-1.8,8.54-5.4,1.55-2.7,1.46-5.86-.22-8.06-.45-.58-.96-1.03-1.53-1.33l-19.76,.32Z"
              fill="#231f20"></path>
    </g>
    <g>
        <path d="M759.8,441.89l10.2,177.29s-12.75,11.48-39.54,5.1l-20.72-176.22s29.65-1.07,50.06-6.17Z"
              fill="#000000"></path>
        <path d="M745.83,626.69c-4.53,0-9.69-.54-15.49-1.92l-.34-.08-.04-.35-20.79-176.76,.54-.02c.3-.01,29.83-1.13,49.96-6.16l.59-.15,.03,.6,10.22,177.53-.18,.16c-.1,.09-8.17,7.14-24.5,7.14Zm-14.92-2.82c24.28,5.67,36.94-3.61,38.57-4.92l-10.15-176.44c-18.68,4.56-44.95,5.85-49.04,6.02l20.62,175.34Z"
              fill="#231f20"></path>
    </g>
    <g>
        <path d="M698.95,448.4l3.13,177.82s-14.89-12.1-40.45,0l-8.74-180.74s28.58,4.33,46.06,2.92Z"
              fill="#000000"></path>
        <path d="M702.6,627.28l-.83-.68c-.15-.12-14.97-11.75-39.92,.06l-.68,.32-8.81-182.09,.6,.09c.29,.04,28.72,4.31,45.94,2.92l.53-.04v.53s3.16,178.89,3.16,178.89Zm-49.18-181.22l8.68,179.39c21.81-10.03,35.99-2.47,39.47-.2l-3.11-176.3c-15.96,1.17-40.86-2.27-45.04-2.88Z"
              fill="#231f20"></path>
    </g>
    <g>
        <path d="M745.77,626.21v21.03c2.19,0,4.2,1.26,5.51,2.33,1.17,.96,2.63,1.49,4.15,1.49h24.78c0-2.81-1.93-5.23-3.67-6.84-4.27-3.96-7.62-8.83-9.36-14.39-1.41-4.51-1.58-7.87-1.58-7.87-4.53,3.58-19.83,4.23-19.83,4.23Z"
              fill="#fff"></path>
        <path d="M780.7,651.57h-25.28c-1.61,0-3.2-.57-4.46-1.61-1.24-1.01-3.14-2.22-5.2-2.22h-.5v-22.01l.48-.02c.15,0,15.2-.68,19.54-4.13l.76-.6,.05,.97s.19,3.36,1.56,7.74c1.62,5.18,4.81,10.08,9.22,14.17,1.75,1.62,3.83,4.18,3.83,7.2v.5Zm-34.44-4.81c2.15,.17,4.06,1.39,5.33,2.43,1.09,.89,2.45,1.38,3.83,1.38h24.26c-.22-2.45-1.98-4.58-3.48-5.97-4.54-4.21-7.83-9.27-9.5-14.61-1-3.21-1.38-5.82-1.53-7.12-4.78,2.91-16.37,3.68-18.91,3.81v20.08Z"
              fill="#231f20"></path>
    </g>
    <path d="M762.99,643.28c-.18,0-.35-.09-.44-.26-.13-.24-.05-.55,.2-.68,5.88-3.26,11.33-1.15,11.56-1.06,.26,.1,.38,.39,.28,.65-.1,.25-.39,.38-.65,.28-.05-.02-5.25-2.02-10.7,1-.08,.04-.16,.06-.24,.06Z"
          fill="#231f20"></path>
    <g>
        <ellipse cx="706.86" cy="135.77" rx="5.74" ry="6.38" fill="#fff"></ellipse>
        <path d="M706.86,142.65c-3.44,0-6.24-3.09-6.24-6.88s2.8-6.88,6.24-6.88,6.24,3.09,6.24,6.88-2.8,6.88-6.24,6.88Zm0-12.75c-2.89,0-5.24,2.64-5.24,5.88s2.35,5.88,5.24,5.88,5.24-2.64,5.24-5.88-2.35-5.88-5.24-5.88Z"
              fill="#231f20"></path>
    </g>
    <g>
        <path d="M811.34,218.87l-23.63,51.48c-.76,1.65-2.66,2.43-4.35,1.78l-16.31-6.22c-1.86-.71-2.73-2.84-1.9-4.64l23.63-51.69c.92-2.01,3.24-2.95,5.3-2.15l15,5.83c2.23,.87,3.28,3.44,2.28,5.62Z"
              fill="#000000"></path>
        <path d="M784.57,272.85c-.47,0-.94-.08-1.4-.26l-16.31-6.22c-1.03-.39-1.82-1.17-2.24-2.19-.42-1.02-.39-2.13,.06-3.13l23.63-51.69c1.03-2.24,3.63-3.3,5.93-2.41l15,5.83c1.21,.47,2.15,1.39,2.63,2.6,.49,1.2,.46,2.52-.08,3.7l-23.63,51.48c-.66,1.43-2.09,2.3-3.59,2.3Zm7.99-65.21c-1.4,0-2.72,.8-3.34,2.14l-23.63,51.69c-.34,.75-.36,1.58-.05,2.34,.31,.76,.9,1.34,1.67,1.63l16.31,6.22c1.44,.55,3.08-.12,3.72-1.52l23.63-51.48c.43-.93,.45-1.96,.07-2.9-.38-.95-1.12-1.67-2.07-2.04l-15-5.83c-.43-.17-.88-.25-1.32-.25Z"
              fill="#231f20"></path>
    </g>
    <g>
        <path d="M797.64,269.52l.35-17.94c.04-2.28-.84-4.48-2.45-6.09l-12.44-12.44c-.93-.93-2.4-1.04-3.46-.26h0c-1.11,.82-1.41,2.36-.67,3.54l2.51,4.03-5.8-4.24c-1.38-1.01-3.34-.63-4.24,.83h0c-.57,.92-.59,2.08-.05,3.02l2.43,4.22-1.2,1.37c-1.23,1.41-1.29,3.48-.15,4.96l4.49,5.8c.3,.38,.36,.89,.17,1.34h0c-.37,.87-1.51,1.1-2.18,.43l-2.32-2.32c-1.31-1.31-3.51-.95-4.33,.7h0c-.52,1.04-.32,2.3,.51,3.12l8.55,8.55c.18,.18,.28,.42,.28,.67h0c0,6.05,4.39,11.38,10.39,12.09,3.55,.42,7.07-.87,8.84-6.4,.51-1.61,.72-3.3,.76-4.99Z"
              fill="#fff"></path>
        <path d="M789.22,281.48c-.42,0-.83-.03-1.23-.07-6.18-.73-10.83-6.14-10.83-12.59,0-.12-.05-.23-.13-.32l-8.55-8.55c-.98-.98-1.22-2.46-.6-3.7,.47-.93,1.32-1.56,2.35-1.73,1.03-.17,2.04,.16,2.78,.9l2.32,2.32c.2,.2,.48,.29,.75,.23,.28-.05,.5-.23,.61-.5,.12-.28,.08-.6-.11-.84l-4.49-5.8c-1.28-1.66-1.21-4.01,.16-5.59l.96-1.1-2.25-3.91c-.63-1.1-.61-2.45,.06-3.53,.5-.81,1.33-1.38,2.27-1.57,.94-.18,1.92,.04,2.69,.6l3.71,2.71-1.14-1.83c-.87-1.39-.51-3.23,.8-4.21,1.25-.92,3.01-.79,4.11,.31l12.44,12.44c1.7,1.7,2.65,4.05,2.6,6.45l-.35,17.94c-.04,1.92-.29,3.6-.78,5.13-1.75,5.47-5.18,6.82-8.14,6.82Zm-18.47-26c-.12,0-.24,0-.36,.03-.71,.11-1.3,.55-1.62,1.19-.42,.85-.26,1.87,.41,2.55l8.55,8.55c.27,.27,.42,.64,.42,1.02,0,5.94,4.28,10.93,9.95,11.6,4.07,.48,6.87-1.56,8.3-6.06,.46-1.44,.7-3.02,.73-4.85l.35-17.94c.04-2.13-.8-4.22-2.31-5.73l-12.44-12.44c-.75-.75-1.96-.84-2.81-.21-.9,.66-1.14,1.93-.55,2.87l3.88,6.22-7.88-5.76c-.56-.41-1.24-.56-1.91-.43-.68,.13-1.25,.53-1.61,1.11-.47,.77-.49,1.73-.04,2.51l2.61,4.52-1.43,1.64c-1.07,1.22-1.12,3.04-.13,4.33l4.49,5.8c.4,.52,.5,1.23,.24,1.84-.24,.56-.74,.97-1.34,1.09-.6,.12-1.22-.07-1.65-.5l-2.32-2.32c-.42-.42-.97-.65-1.55-.65Z"
              fill="#231f20"></path>
    </g>
    <path d="M779.95,269.17c-.83,0-1.75-.19-2.75-.56-.26-.1-.39-.38-.29-.64,.1-.26,.38-.39,.64-.29,1.76,.66,3.17,.66,4.2,.02,1.55-.97,1.78-3.13,1.78-3.15,.01-.14,.09-.28,.21-.36,.12-.08,.27-.11,.41-.08,4.54,1.13,5.72-3.28,5.77-3.46,.06-.22,.26-.38,.48-.38,.65,0,1.14-.21,1.51-.65,1.04-1.27,.75-4.13,.55-5.12-.03-.15,0-.3,.1-.41,.1-.12,.24-.18,.39-.18,1.76,0,3.01-.64,3.73-1.89,.75-1.31,.6-2.74,.47-2.95-.19-.2-.17-.51,.03-.69,.2-.19,.53-.17,.72,.04,.46,.49,.52,2.18-.1,3.61-.44,1.01-1.56,2.66-4.26,2.87,.16,1.19,.36,3.9-.85,5.38-.48,.59-1.12,.92-1.91,1-.42,1.17-2.05,4.72-6.34,3.94-.18,.84-.71,2.45-2.15,3.34-.67,.42-1.46,.63-2.34,.63Z"
          fill="#231f20"></path>
    <path d="M789.13,249.79c-.14,0-.28-.06-.38-.17l-7.65-8.93c-.18-.21-.16-.52,.05-.7,.21-.18,.52-.16,.71,.05l7.65,8.93c.18,.21,.16,.52-.05,.7-.09,.08-.21,.12-.33,.12Z"
          fill="#231f20"></path>
    <path d="M786.37,259.2c-.14,0-.28-.06-.38-.17l-12.54-14.51c-.18-.21-.16-.52,.05-.71,.21-.18,.52-.16,.71,.05l12.54,14.51c.18,.21,.16,.52-.05,.71-.09,.08-.21,.12-.33,.12Z"
          fill="#231f20"></path>
    <g>
        <path d="M568.83,287.92h-148.31s-52.22-108.62-52.22-108.62c-.04-.08,.02-.16,.1-.16h145.92c.55,0,1.06,.31,1.3,.81l53.2,107.97Z"
              fill="#000000"></path>
        <path d="M569.63,288.42h-149.43l-.14-.28-52.22-108.62c-.09-.19-.08-.42,.03-.59s.31-.29,.52-.29h145.92c.75,0,1.42,.42,1.75,1.09l53.56,108.69Zm-148.8-1h147.19l-52.85-107.25c-.16-.33-.49-.53-.85-.53h-145.31l51.81,107.78Z"
              fill="#231f20"></path>
    </g>
    <g>
        <path d="M493.82,204.45h-69.23s-9.09,12.22-7.86,29.81v420.64s130.33,0,130.33,0l-25.78-233.41s-23.04-191.73-27.46-217.04Z"
              fill="#000000"></path>
        <path d="M547.62,655.39h-131.39V234.25c-1.23-17.54,7.86-29.98,7.95-30.11l.15-.2h69.9l.07,.41c4.38,25.03,27.24,215.14,27.47,217.06l25.85,233.97Zm-130.39-1h129.27l-25.72-232.86c-.23-1.9-22.84-189.99-27.39-216.59h-68.55c-1.14,1.65-8.73,13.29-7.62,29.27v420.17Z"
              fill="#231f20"></path>
    </g>
    <path d="M514.9,638.81c-.26,0-.48-.2-.5-.46l-27.42-381.37c-3.18-49.58,6.29-52.9,6.7-53.01,.26-.07,.54,.08,.62,.34,.08,.26-.07,.53-.33,.62-.16,.06-9.07,3.91-5.99,51.99l27.42,381.37c.02,.28-.19,.51-.46,.53-.01,0-.02,0-.04,0Z"
          fill="#231f20"></path>
    <g>
        <g>
            <g>
                <rect x="115.16" y="52.59" width="11.24" height="36.53" fill="#fff"></rect>
                <path d="M126.9,89.62h-12.24V52.09h12.24v37.53Zm-11.24-1h10.24V53.09h-10.24v35.53Z"
                      fill="#231f20"></path>
            </g>
            <g>
                <rect x="241.63" y="52.59" width="11.24" height="36.53" fill="#fff"></rect>
                <path d="M253.37,89.62h-12.24V52.09h12.24v37.53Zm-11.24-1h10.24V53.09h-10.24v35.53Z"
                      fill="#231f20"></path>
            </g>
            <path d="M153.1,190.79c-.21,0-.4-.13-.47-.34l-32.32-94.15c-.09-.26,.05-.55,.31-.64,.26-.09,.54,.05,.63,.31l32.32,94.15c.09,.26-.05,.55-.31,.64-.05,.02-.11,.03-.16,.03Z"
                  fill="#231f20"></path>
            <path d="M221.09,190.81s-.09,0-.13-.02c-.27-.07-.42-.35-.35-.62l26.16-94.17c.07-.27,.34-.42,.62-.35,.27,.07,.42,.35,.35,.62l-26.16,94.17c-.06,.22-.26,.37-.48,.37Z"
                  fill="#231f20"></path>
            <path d="M136.71,239.54c-.07,0-.14,0-.21-.01-16.52-2.32-28.64-10.33-36.02-23.81-11.52-21.06-7.81-49.9-1.5-63.66,3.7-8.06,8.67-15.55,14.78-22.24,15.83-17.37,22.85-35.07,20.29-51.2-1.93-12.16-8.66-19.3-8.73-19.37-.57-.6-.55-1.55,.04-2.12,.6-.57,1.54-.56,2.12,.04,.3,.31,7.38,7.77,9.5,20.8,1.95,11.93-.12,30.96-21,53.87-5.89,6.47-10.69,13.69-14.27,21.47-6.05,13.19-9.62,40.82,1.4,60.97,6.9,12.61,18.27,20.1,33.8,22.28,.82,.12,1.39,.87,1.28,1.69-.11,.75-.75,1.29-1.48,1.29Z"
                  fill="#231f20"></path>
            <g>
                <path d="M71.6,35.72h222.02v8.07c0,7.96-6.46,14.42-14.42,14.42H86.02c-7.96,0-14.42-6.46-14.42-14.42v-8.07h0Z"
                      fill="silver"></path>
                <path d="M279.2,58.71H86.02c-8.22,0-14.92-6.69-14.92-14.92v-8.57h223.02v8.57c0,8.22-6.69,14.92-14.92,14.92ZM72.1,36.22v7.57c0,7.67,6.24,13.92,13.92,13.92h193.19c7.67,0,13.92-6.24,13.92-13.92v-7.57H72.1Z"
                      fill="#231f20"></path>
            </g>
            <g>
                <rect x="54.04" y="28" width="259.96" height="16.16" rx="8.08" ry="8.08" fill="#000000"></rect>
                <path d="M305.92,44.65H62.12c-4.73,0-8.58-3.85-8.58-8.58s3.85-8.58,8.58-8.58h243.8c4.73,0,8.58,3.85,8.58,8.58s-3.85,8.58-8.58,8.58ZM62.12,28.5c-4.18,0-7.58,3.4-7.58,7.58s3.4,7.58,7.58,7.58h243.8c4.18,0,7.58-3.4,7.58-7.58s-3.4-7.58-7.58-7.58H62.12Z"
                      fill="#231f20"></path>
            </g>
            <g>
                <rect x="94.08" y="82.09" width="179.86" height="14.05" rx="7.03" ry="7.03" fill="#000000"></rect>
                <path d="M266.92,96.65H101.11c-4.15,0-7.53-3.38-7.53-7.53s3.38-7.53,7.53-7.53h165.81c4.15,0,7.53,3.38,7.53,7.53s-3.38,7.53-7.53,7.53Zm-165.81-14.05c-3.6,0-6.53,2.93-6.53,6.53s2.93,6.53,6.53,6.53h165.81c3.6,0,6.53-2.93,6.53-6.53s-2.93-6.53-6.53-6.53H101.11Z"
                      fill="#231f20"></path>
            </g>
        </g>
        <g>
            <g>
                <rect x="171.23" y="448.99" width="18.75" height="32.39" fill="#fff"></rect>
                <path d="M190.48,481.88h-19.75v-33.39h19.75v33.39Zm-18.75-1h17.75v-31.39h-17.75v31.39Z"
                      fill="#231f20"></path>
            </g>
            <g>
                <circle cx="181.46" cy="497.58" r="25.57" fill="#231f20"></circle>
                <path d="M181.46,523.65c-14.38,0-26.07-11.69-26.07-26.07s11.69-26.07,26.07-26.07,26.07,11.69,26.07,26.07-11.7,26.07-26.07,26.07Zm0-51.14c-13.82,0-25.07,11.25-25.07,25.07s11.25,25.07,25.07,25.07,25.07-11.25,25.07-25.07-11.25-25.07-25.07-25.07Z"
                      fill="#231f20"></path>
            </g>
            <g>
                <rect x="159.73" y="421.72" width="44.32" height="10.23" rx="5.11" ry="5.11" fill="#000000"></rect>
                <path d="M198.93,432.45h-34.09c-3.09,0-5.61-2.52-5.61-5.61s2.52-5.61,5.61-5.61h34.09c3.1,0,5.61,2.52,5.61,5.61s-2.52,5.61-5.61,5.61Zm-34.09-10.23c-2.54,0-4.61,2.07-4.61,4.61s2.07,4.61,4.61,4.61h34.09c2.54,0,4.61-2.07,4.61-4.61s-2.07-4.61-4.61-4.61h-34.09Z"
                      fill="#231f20"></path>
            </g>
            <g>
                <rect x="159.73" y="431.95" width="44.32" height="10.23" rx="5.11" ry="5.11" fill="#000000"></rect>
                <path d="M198.93,442.68h-34.09c-3.09,0-5.61-2.52-5.61-5.61s2.52-5.61,5.61-5.61h34.09c3.1,0,5.61,2.52,5.61,5.61s-2.52,5.61-5.61,5.61Zm-34.09-10.23c-2.54,0-4.61,2.07-4.61,4.61s2.07,4.61,4.61,4.61h34.09c2.54,0,4.61-2.07,4.61-4.61s-2.07-4.61-4.61-4.61h-34.09Z"
                      fill="#231f20"></path>
            </g>
            <g>
                <rect x="159.73" y="442.18" width="44.32" height="10.23" rx="5.11" ry="5.11" fill="#000000"></rect>
                <path d="M198.93,452.9h-34.09c-3.09,0-5.61-2.52-5.61-5.61s2.52-5.61,5.61-5.61h34.09c3.1,0,5.61,2.52,5.61,5.61s-2.52,5.61-5.61,5.61Zm-34.09-10.23c-2.54,0-4.61,2.07-4.61,4.61s2.07,4.61,4.61,4.61h34.09c2.54,0,4.61-2.07,4.61-4.61s-2.07-4.61-4.61-4.61h-34.09Z"
                      fill="#231f20"></path>
            </g>
            <g>
                <path d="M154.19,404.67h55.4v9.45c0,4.19-3.4,7.59-7.59,7.59h-40.22c-4.19,0-7.59-3.4-7.59-7.59v-9.45h0Z"
                      fill="#000000"></path>
                <path d="M201.99,422.22h-40.22c-4.46,0-8.09-3.63-8.09-8.09v-9.95h56.4v9.95c0,4.46-3.63,8.09-8.09,8.09Zm-47.31-17.05v8.95c0,3.91,3.18,7.09,7.09,7.09h40.22c3.91,0,7.09-3.18,7.09-7.09v-8.95h-54.4Z"
                      fill="#231f20"></path>
            </g>
            <path d="M273.51,300.79h-13.42c-.28,0-.5-.22-.5-.5s.22-.5,.5-.5h13.42c.28,0,.5,.22,.5,.5s-.22,.5-.5,.5Z"
                  fill="#231f20"></path>
            <path d="M273.51,311.18h-12.83c-.28,0-.5-.22-.5-.5s.22-.5,.5-.5h12.83c.28,0,.5,.22,.5,.5s-.22,.5-.5,.5Z"
                  fill="#231f20"></path>
            <g>
                <path d="M248.79,298.13h5.97c4.23,0,7.67,3.44,7.67,7.67h0c0,4.23-3.44,7.67-7.67,7.67h-5.97v-15.34h0Z"
                      fill="#fff"></path>
                <path d="M254.76,313.98h-6.47v-16.34h6.47c4.51,0,8.17,3.67,8.17,8.17s-3.67,8.17-8.17,8.17Zm-5.47-1h5.47c3.95,0,7.17-3.22,7.17-7.17s-3.22-7.17-7.17-7.17h-5.47v14.34Z"
                      fill="#231f20"></path>
            </g>
            <g>
                <path d="M236.01,291.31h10.62c4.02,0,7.28,3.26,7.28,7.28v14.42c0,4.02-3.26,7.28-7.28,7.28h-10.62v-28.98h0Z"
                      fill="#000000"></path>
                <path d="M246.63,320.79h-11.12v-29.98h11.12c4.29,0,7.78,3.49,7.78,7.78v14.42c0,4.29-3.49,7.78-7.78,7.78Zm-10.12-1h10.12c3.74,0,6.78-3.04,6.78-6.78v-14.42c0-3.74-3.04-6.78-6.78-6.78h-10.12v27.98Z"
                      fill="#231f20"></path>
            </g>
            <path d="M91.72,382.22c-.28,0-.5-.22-.5-.5v-66.83c0-.28,.22-.5,.5-.5s.5,.22,.5,.5v66.83c0,.28-.22,.5-.5,.5Z"
                  fill="#231f20"></path>
            <path d="M82.16,382.16c-.28,0-.5-.22-.5-.5v-66.19c0-.28,.22-.5,.5-.5s.5,.22,.5,.5v66.19c0,.28-.22,.5-.5,.5Z"
                  fill="#231f20"></path>
            <path d="M107.95,312.67h-13.42c-.28,0-.5-.22-.5-.5s.22-.5,.5-.5h13.42c.28,0,.5,.22,.5,.5s-.22,.5-.5,.5Z"
                  fill="#231f20"></path>
            <path d="M107.35,302.28h-12.83c-.28,0-.5-.22-.5-.5s.22-.5,.5-.5h12.83c.28,0,.5,.22,.5,.5s-.22,.5-.5,.5Z"
                  fill="#231f20"></path>
            <g>
                <path d="M102.19,298.99h5.97c4.23,0,7.67,3.44,7.67,7.67h0c0,4.23-3.44,7.67-7.67,7.67h-5.97v-15.34h0Z"
                      transform="translate(218.02 613.31) rotate(180)" fill="#fff"></path>
                <path d="M116.33,314.83h-6.47c-4.51,0-8.17-3.67-8.17-8.17s3.67-8.17,8.17-8.17h6.47v16.34Zm-6.47-15.34c-3.95,0-7.17,3.22-7.17,7.17s3.22,7.17,7.17,7.17h5.47v-14.34h-5.47Z"
                      fill="#231f20"></path>
            </g>
            <g>
                <path d="M108.16,292.17h10.62c4.02,0,7.28,3.26,7.28,7.28v14.42c0,4.02-3.26,7.28-7.28,7.28h-10.62v-28.98h0Z"
                      transform="translate(234.22 613.31) rotate(180)" fill="#000000"></path>
                <path d="M126.56,321.65h-11.12c-4.29,0-7.78-3.49-7.78-7.78v-14.42c0-4.29,3.49-7.78,7.78-7.78h11.12v29.98Zm-11.12-28.98c-3.74,0-6.78,3.04-6.78,6.78v14.42c0,3.74,3.04,6.78,6.78,6.78h10.12v-27.98h-10.12Z"
                      fill="#231f20"></path>
            </g>
            <g>
                <g>
                    <circle cx="86.43" cy="306.66" r="9.8" fill="#000000"></circle>
                    <path d="M86.43,316.96c-5.68,0-10.3-4.62-10.3-10.3s4.62-10.3,10.3-10.3,10.3,4.62,10.3,10.3-4.62,10.3-10.3,10.3Zm0-19.6c-5.13,0-9.3,4.17-9.3,9.3s4.17,9.3,9.3,9.3,9.3-4.17,9.3-9.3-4.17-9.3-9.3-9.3Z"
                          fill="#231f20"></path>
                </g>
                <g>
                    <circle cx="86.43" cy="306.66" r="4.26" fill="#fff"></circle>
                    <path d="M86.43,311.42c-2.63,0-4.76-2.14-4.76-4.76s2.14-4.76,4.76-4.76,4.76,2.14,4.76,4.76-2.14,4.76-4.76,4.76Zm0-8.52c-2.07,0-3.76,1.69-3.76,3.76s1.69,3.76,3.76,3.76,3.76-1.69,3.76-3.76-1.69-3.76-3.76-3.76Z"
                          fill="#231f20"></path>
                </g>
            </g>
            <g>
                <polygon
                        points="97.08 408.94 91.72 405.24 97.08 395.83 91.72 387.39 82.16 387.39 77.48 395.3 82.16 404.83 77.48 408.94 70.66 395.3 78.33 380.81 95.37 380.81 104.75 396.15 97.08 408.94"
                        fill="#000000"></polygon>
                <path d="M77.32,409.74l-7.22-14.45,7.93-14.98h17.63l9.68,15.84-8.1,13.5-6.17-4.25,5.44-9.55-5.05-7.96h-9l-4.4,7.43,4.74,9.63-5.46,4.79Zm15.06-4.65l4.54,3.13,7.24-12.07-9.07-14.84h-16.47l-7.41,14,6.41,12.83,3.91-3.43-4.64-9.43,4.97-8.39h10.12l5.67,8.93-5.28,9.27Z"
                      fill="#231f20"></path>
            </g>
            <g>
                <path d="M125.55,196.49h3.92v23.87h-3.92c-4.89,0-8.87-3.97-8.87-8.87v-6.13c0-4.89,3.97-8.87,8.87-8.87Z"
                      fill="#000000"></path>
                <path d="M129.97,220.86h-4.42c-5.17,0-9.37-4.2-9.37-9.37v-6.13c0-5.17,4.2-9.37,9.37-9.37h4.42v24.87Zm-4.42-23.87c-4.61,0-8.37,3.75-8.37,8.37v6.13c0,4.61,3.75,8.37,8.37,8.37h3.42v-22.87h-3.42Z"
                      fill="#231f20"></path>
            </g>
            <g>
                <path d="M240.61,196.49h3.92v23.87h-3.92c-4.89,0-8.87-3.97-8.87-8.87v-6.13c0-4.89,3.97-8.87,8.87-8.87Z"
                      transform="translate(476.28 416.85) rotate(180)" fill="#000000"></path>
                <path d="M235.66,220.86h-4.42v-24.87h4.42c5.17,0,9.37,4.2,9.37,9.37v6.13c0,5.17-4.2,9.37-9.37,9.37Zm-3.42-1h3.42c4.61,0,8.37-3.75,8.37-8.37v-6.13c0-4.61-3.75-8.37-8.37-8.37h-3.42v22.87Z"
                      fill="#231f20"></path>
            </g>
            <g>
                <rect x="125.21" y="166.02" width="112.51" height="84.81" rx="42.4" ry="42.4" fill="#000000"></rect>
                <path d="M195.31,251.33h-27.7c-23.66,0-42.9-19.25-42.9-42.9s19.25-42.9,42.9-42.9h27.7c23.66,0,42.9,19.25,42.9,42.9s-19.25,42.9-42.9,42.9Zm-27.7-84.81c-23.11,0-41.9,18.8-41.9,41.9s18.8,41.9,41.9,41.9h27.7c23.11,0,41.9-18.8,41.9-41.9s-18.8-41.9-41.9-41.9h-27.7Z"
                      fill="#231f20"></path>
            </g>
            <g>
                <rect x="146.51" y="195.22" width="69.04" height="26.42" rx="10.47" ry="10.47" fill="#e6e7e8"></rect>
                <path d="M205.08,222.14h-48.1c-6.05,0-10.97-4.92-10.97-10.97v-5.48c0-6.05,4.92-10.97,10.97-10.97h48.1c6.05,0,10.97,4.92,10.97,10.97v5.48c0,6.05-4.92,10.97-10.97,10.97Zm-48.1-26.42c-5.5,0-9.97,4.47-9.97,9.97v5.48c0,5.5,4.47,9.97,9.97,9.97h48.1c5.5,0,9.97-4.47,9.97-9.97v-5.48c0-5.5-4.47-9.97-9.97-9.97h-48.1Z"
                      fill="#231f20"></path>
            </g>
            <g>
                <circle cx="164.41" cy="208.43" r="4.26" fill="#231f20"></circle>
                <path d="M164.41,213.19c-2.63,0-4.76-2.14-4.76-4.76s2.14-4.76,4.76-4.76,4.76,2.14,4.76,4.76-2.14,4.76-4.76,4.76Zm0-8.52c-2.07,0-3.76,1.69-3.76,3.76s1.69,3.76,3.76,3.76,3.76-1.69,3.76-3.76-1.69-3.76-3.76-3.76Z"
                      fill="#231f20"></path>
            </g>
            <g>
                <circle cx="199.36" cy="208.43" r="4.26" fill="#231f20"></circle>
                <path d="M199.36,213.19c-2.63,0-4.76-2.14-4.76-4.76s2.14-4.76,4.76-4.76,4.76,2.14,4.76,4.76-2.14,4.76-4.76,4.76Zm0-8.52c-2.07,0-3.76,1.69-3.76,3.76s1.69,3.76,3.76,3.76,3.76-1.69,3.76-3.76-1.69-3.76-3.76-3.76Z"
                      fill="#231f20"></path>
            </g>
            <g>
                <rect x="159.3" y="251.26" width="44.32" height="10.23" rx="5.11" ry="5.11" fill="#000000"></rect>
                <path d="M198.51,261.98h-34.09c-3.1,0-5.61-2.52-5.61-5.61s2.52-5.61,5.61-5.61h34.09c3.1,0,5.61,2.52,5.61,5.61s-2.52,5.61-5.61,5.61Zm-34.09-10.23c-2.54,0-4.61,2.07-4.61,4.61s2.07,4.61,4.61,4.61h34.09c2.54,0,4.61-2.07,4.61-4.61s-2.07-4.61-4.61-4.61h-34.09Z"
                      fill="#231f20"></path>
            </g>
            <g>
                <rect x="159.3" y="261.48" width="44.32" height="10.23" rx="5.11" ry="5.11" fill="#000000"></rect>
                <path d="M198.51,272.21h-34.09c-3.1,0-5.61-2.52-5.61-5.61s2.52-5.61,5.61-5.61h34.09c3.1,0,5.61,2.52,5.61,5.61s-2.52,5.61-5.61,5.61Zm-34.09-10.23c-2.54,0-4.61,2.07-4.61,4.61s2.07,4.61,4.61,4.61h34.09c2.54,0,4.61-2.07,4.61-4.61s-2.07-4.61-4.61-4.61h-34.09Z"
                      fill="#231f20"></path>
            </g>
            <g>
                <path d="M244.94,304.27l-6.95,75.62c-1.6,17.42-16.22,30.75-33.72,30.75h-45.8c-17.42,0-32-13.22-33.7-30.55l-7.42-75.64c-1.72-17.54,12.06-32.75,29.69-32.75h68.21c17.56,0,31.31,15.09,29.7,32.56Z"
                      fill="#000000"></path>
                <path d="M204.27,411.14h-45.8c-17.76,0-32.46-13.33-34.2-31l-7.42-75.63c-.83-8.5,1.98-17.01,7.72-23.34,5.74-6.33,13.93-9.96,22.47-9.96h68.21c8.51,0,16.68,3.6,22.41,9.89,5.73,6.28,8.57,14.75,7.79,23.21l-6.96,75.62c-1.64,17.79-16.35,31.21-34.22,31.21Zm-57.24-138.93c-8.26,0-16.18,3.51-21.73,9.63-5.55,6.12-8.27,14.35-7.46,22.57l7.42,75.63c1.69,17.16,15.96,30.1,33.2,30.1h45.8c17.35,0,31.63-13.03,33.22-30.3l6.96-75.62c.75-8.19-1.99-16.37-7.53-22.45-5.54-6.08-13.44-9.56-21.67-9.56h-68.21Z"
                      fill="#231f20"></path>
            </g>
            <g>
                <path d="M212.94,271.71l-11.48,45.3c-.49,1.93-2.23,3.28-4.22,3.28h-31.13c-2,0-3.74-1.35-4.22-3.29-2.34-9.32-9.03-35.83-11.71-45.29h62.77Z"
                      fill="#fff"></path>
                <path d="M197.24,320.79h-31.13c-2.23,0-4.17-1.51-4.71-3.67-2.05-8.18-8.97-35.63-11.71-45.28l-.18-.64h64.08l-11.64,45.92c-.55,2.16-2.48,3.66-4.71,3.66Zm-46.41-48.58c2.85,10.18,9.52,36.66,11.54,44.67,.43,1.71,1.97,2.91,3.74,2.91h31.13c1.77,0,3.3-1.2,3.74-2.91l11.33-44.67h-61.47Z"
                      fill="#231f20"></path>
            </g>
            <g>
                <rect x="143.96" y="338.19" width="75.86" height="43.47" rx="10.65" ry="10.65" fill="#fff"></rect>
                <path d="M209.17,382.16h-54.57c-6.15,0-11.15-5-11.15-11.15v-22.18c0-6.15,5-11.15,11.15-11.15h54.57c6.15,0,11.14,5,11.14,11.15v22.18c0,6.15-5,11.15-11.14,11.15Zm-54.57-43.47c-5.59,0-10.15,4.55-10.15,10.15v22.18c0,5.59,4.55,10.15,10.15,10.15h54.57c5.59,0,10.14-4.55,10.14-10.15v-22.18c0-5.59-4.55-10.15-10.14-10.15h-54.57Z"
                      fill="#231f20"></path>
            </g>
            <g>
                <rect x="157.17" y="350.55" width="49.43" height="18.75" rx="4.83" ry="4.83" fill="#000000"></rect>
                <path d="M201.77,369.8h-39.78c-2.94,0-5.33-2.39-5.33-5.33v-9.09c0-2.94,2.39-5.33,5.33-5.33h39.78c2.94,0,5.33,2.39,5.33,5.33v9.09c0,2.94-2.39,5.33-5.33,5.33Zm-39.78-18.75c-2.39,0-4.33,1.94-4.33,4.33v9.09c0,2.39,1.94,4.33,4.33,4.33h39.78c2.39,0,4.33-1.94,4.33-4.33v-9.09c0-2.39-1.94-4.33-4.33-4.33h-39.78Z"
                      fill="#231f20"></path>
            </g>
            <g>
                <g>
                    <circle cx="281.61" cy="305.8" r="9.8" fill="#000000"></circle>
                    <path d="M281.61,316.11c-5.68,0-10.3-4.62-10.3-10.3s4.62-10.3,10.3-10.3,10.3,4.62,10.3,10.3-4.62,10.3-10.3,10.3Zm0-19.6c-5.13,0-9.3,4.17-9.3,9.3s4.17,9.3,9.3,9.3,9.3-4.17,9.3-9.3-4.17-9.3-9.3-9.3Z"
                          fill="#231f20"></path>
                </g>
                <g>
                    <circle cx="281.61" cy="305.8" r="4.26" fill="#fff"></circle>
                    <path d="M281.61,310.57c-2.63,0-4.76-2.14-4.76-4.76s2.14-4.76,4.76-4.76,4.76,2.14,4.76,4.76-2.14,4.76-4.76,4.76Zm0-8.52c-2.07,0-3.76,1.69-3.76,3.76s1.69,3.76,3.76,3.76,3.76-1.69,3.76-3.76-1.69-3.76-3.76-3.76Z"
                          fill="#231f20"></path>
                </g>
            </g>
            <path d="M276.31,298.06c-.28,0-.5-.22-.5-.5v-66.83c0-.28,.22-.5,.5-.5s.5,.22,.5,.5v66.83c0,.28-.22,.5-.5,.5Z"
                  fill="#231f20"></path>
            <path d="M285.87,297.49c-.28,0-.5-.22-.5-.5v-66.19c0-.28,.22-.5,.5-.5s.5,.22,.5,.5v66.19c0,.28-.22,.5-.5,.5Z"
                  fill="#231f20"></path>
            <g>
                <polygon
                        points="270.95 203.53 276.31 207.22 270.95 216.63 276.31 225.07 285.87 225.07 290.56 217.16 285.87 207.63 290.56 203.53 297.38 217.16 289.7 231.65 272.66 231.65 263.28 216.31 270.95 203.53"
                        fill="#000000"></polygon>
                <path d="M290,232.15h-17.63l-9.68-15.84,8.1-13.5,6.17,4.25-5.44,9.55,5.05,7.96h9l4.4-7.43-4.74-9.63,5.46-4.79,7.22,14.45-7.93,14.98Zm-17.07-1h16.46l7.41-14-6.41-12.83-3.91,3.43,4.64,9.43-4.97,8.39h-10.12l-5.67-8.93,5.28-9.27-4.54-3.13-7.24,12.07,9.07,14.84Z"
                      fill="#231f20"></path>
            </g>
        </g>
    </g>
    <g>
        <path d="M686.48,130.59c-.05,0-.11,0-.16-.03-.03-.01-3.26-1.07-6.43-1.07-.28,0-.5-.22-.5-.5s.22-.5,.5-.5c3.33,0,6.6,1.08,6.74,1.12,.26,.09,.4,.37,.32,.63-.07,.21-.27,.34-.47,.34Z"
              fill="#231f20"></path>
        <path d="M663.42,131.53c-.22,0-.42-.14-.48-.36-.08-.27,.08-.54,.34-.62,1.01-.29,2.16-.51,3.4-.65,.27-.03,.52,.17,.55,.44,.03,.27-.17,.52-.44,.55-1.19,.13-2.27,.34-3.23,.62-.05,.01-.09,.02-.14,.02Z"
              fill="#231f20"></path>
        <g>
            <ellipse cx="682.64" cy="135.58" rx="1.65" ry="2.19" fill="#231f20"></ellipse>
            <path d="M682.64,138.27c-1.18,0-2.15-1.21-2.15-2.69s.96-2.69,2.15-2.69,2.15,1.21,2.15,2.69-.96,2.69-2.15,2.69Zm0-4.39c-.62,0-1.15,.78-1.15,1.69s.52,1.69,1.15,1.69,1.15-.78,1.15-1.69-.53-1.69-1.15-1.69Z"
                  fill="#231f20"></path>
        </g>
        <g>
            <ellipse cx="666.18" cy="137.77" rx="1.65" ry="2.19" fill="#231f20"></ellipse>
            <path d="M666.18,140.47c-1.18,0-2.15-1.21-2.15-2.69s.96-2.69,2.15-2.69,2.15,1.21,2.15,2.69-.96,2.69-2.15,2.69Zm0-4.39c-.62,0-1.15,.78-1.15,1.69s.53,1.69,1.15,1.69,1.15-.78,1.15-1.69-.53-1.69-1.15-1.69Z"
                  fill="#231f20"></path>
        </g>
        <path d="M677.7,147.05h-3.63c-.15,0-.3-.07-.39-.19-.09-.12-.13-.28-.1-.42l1.82-7.82c.06-.27,.33-.44,.6-.37,.27,.06,.44,.33,.37,.6l-1.67,7.2h3c.28,0,.5,.22,.5,.5s-.22,.5-.5,.5Z"
              fill="#231f20"></path>
        <g>
            <path d="M682.09,149.85l-9.88,1.1s5.49,8.78,9.88-1.1Z" fill="#fff"></path>
            <path d="M677.23,155.04c-3.01,0-5.34-3.67-5.44-3.83-.09-.15-.1-.33-.03-.48s.22-.26,.39-.28l9.88-1.1c.18-.02,.35,.06,.46,.2,.11,.14,.13,.33,.05,.5-1.41,3.17-3.11,4.84-5.06,4.98-.09,0-.17,0-.26,0Zm-4.11-3.69c.79,1.02,2.46,2.8,4.3,2.69,1.4-.1,2.68-1.31,3.84-3.59l-8.14,.9Z"
                  fill="#231f20"></path>
        </g>
    </g>
    <path d="M706.86,139.24c-.28,0-.5-.22-.5-.5v-5.35c0-.28,.22-.5,.5-.5s.5,.22,.5,.5v5.35c0,.28-.22,.5-.5,.5Z"
          fill="#231f20"></path>
</svg>
